<svg xmlns="http://www.w3.org/2000/svg" viewBox="0 0 800 1000" role="img" aria-label="Wedding bouquet">
  <rect width="800" height="1000" fill="#fffdfc"/>
  <path d="M-60 770 C180 620 330 800 520 680 C650 600 740 610 860 700 L860 1000 L-60 1000 Z" fill="#fff5f6"/>
  <g fill="none" stroke="#9f7b83" stroke-width="18" stroke-linecap="round">
    <path d="M220 760 C330 560 430 400 590 220"/>
    <path d="M310 790 C380 590 360 430 300 250"/>
    <path d="M400 770 C450 580 540 470 660 360"/>
  </g>
  <g fill="#ffffff">
    <circle cx="285" cy="250" r="72"/>
    <circle cx="600" cy="220" r="78"/>
    <circle cx="660" cy="360" r="64"/>
    <circle cx="360" cy="422" r="82"/>
    <circle cx="520" cy="480" r="76"/>
  </g>
  <g fill="#c4a0a7">
    <ellipse cx="240" cy="575" rx="46" ry="112" transform="rotate(-34 240 575)"/>
    <ellipse cx="500" cy="360" rx="42" ry="118" transform="rotate(49 500 360)"/>
    <ellipse cx="645" cy="520" rx="46" ry="126" transform="rotate(55 645 520)"/>
  </g>
</svg>
