<svg xmlns="http://www.w3.org/2000/svg" viewBox="0 0 1200 1700" role="img" aria-label="Wedding rings and flowers on a table">
  <defs>
    <linearGradient id="cloth" x1="0" x2="1" y1="0" y2="1">
      <stop offset="0" stop-color="#fffdfc"/>
      <stop offset="0.52" stop-color="#fff7f8"/>
      <stop offset="1" stop-color="#fffaf4"/>
    </linearGradient>
    <linearGradient id="paper" x1="0" x2="1" y1="0" y2="1">
      <stop offset="0" stop-color="#ffffff"/>
      <stop offset="1" stop-color="#f4e7e5"/>
    </linearGradient>
    <linearGradient id="gold" x1="0" x2="1">
      <stop offset="0" stop-color="#a97931"/>
      <stop offset="0.5" stop-color="#f3d28a"/>
      <stop offset="1" stop-color="#9b6521"/>
    </linearGradient>
    <filter id="softShadow" x="-20%" y="-20%" width="140%" height="140%">
      <feDropShadow dx="0" dy="28" stdDeviation="26" flood-color="#8f7478" flood-opacity="0.1"/>
    </filter>
  </defs>
  <rect width="1200" height="1700" fill="url(#cloth)"/>
  <path d="M-80 1380 C260 1230 420 1540 760 1390 C980 1290 1090 1320 1280 1450 L1280 1700 L-80 1700 Z" fill="#fff0f3"/>
  <path d="M-70 240 C210 180 420 280 600 210 C820 125 1010 130 1270 230 L1270 -30 L-70 -30 Z" fill="#fff8f0"/>
  <g opacity="0.14" fill="none" stroke="#b8949b" stroke-width="2">
    <path d="M170 220 C270 360 230 470 350 600"/>
    <path d="M940 980 C780 1080 800 1230 660 1350"/>
    <path d="M1040 250 C900 360 890 520 760 620"/>
  </g>
  <g filter="url(#softShadow)">
    <rect x="210" y="560" width="780" height="520" rx="20" fill="url(#paper)" transform="rotate(-5 600 820)"/>
    <rect x="278" y="628" width="640" height="15" rx="7.5" fill="#d9c7c8" opacity="0.42" transform="rotate(-5 598 635)"/>
    <rect x="310" y="704" width="520" height="12" rx="6" fill="#d2c0c1" opacity="0.32" transform="rotate(-5 570 710)"/>
  </g>
  <g transform="translate(588 858) rotate(-12)" filter="url(#softShadow)">
    <circle cx="-52" cy="0" r="86" fill="none" stroke="url(#gold)" stroke-width="28"/>
    <circle cx="52" cy="16" r="86" fill="none" stroke="url(#gold)" stroke-width="28"/>
    <circle cx="-52" cy="0" r="57" fill="none" stroke="#fff3bf" stroke-width="5" opacity="0.75"/>
    <circle cx="52" cy="16" r="57" fill="none" stroke="#fff3bf" stroke-width="5" opacity="0.75"/>
  </g>
  <g transform="translate(160 1030)" filter="url(#softShadow)">
    <path d="M0 160 C190 30 320 20 520 130" fill="none" stroke="#9f7b83" stroke-width="18" stroke-linecap="round"/>
    <g fill="#f9fbf7">
      <circle cx="72" cy="132" r="42"/>
      <circle cx="132" cy="96" r="46"/>
      <circle cx="205" cy="74" r="40"/>
      <circle cx="306" cy="86" r="44"/>
      <circle cx="386" cy="112" r="48"/>
    </g>
    <g fill="#c4a0a7">
      <ellipse cx="18" cy="154" rx="28" ry="66" transform="rotate(-42 18 154)"/>
      <ellipse cx="252" cy="74" rx="26" ry="72" transform="rotate(68 252 74)"/>
      <ellipse cx="466" cy="128" rx="30" ry="74" transform="rotate(58 466 128)"/>
    </g>
  </g>
  <g transform="translate(828 344)" filter="url(#softShadow)">
    <path d="M0 220 C110 112 140 50 250 0" fill="none" stroke="#9f7b83" stroke-width="14" stroke-linecap="round"/>
    <g fill="#ffffff">
      <circle cx="22" cy="194" r="38"/>
      <circle cx="88" cy="130" r="34"/>
      <circle cx="156" cy="64" r="36"/>
    </g>
    <g fill="#c4a4aa">
      <ellipse cx="60" cy="162" rx="24" ry="58" transform="rotate(45 60 162)"/>
      <ellipse cx="205" cy="34" rx="22" ry="64" transform="rotate(54 205 34)"/>
    </g>
  </g>
</svg>
